<svg version="1" xmlns="http://www.w3.org/2000/svg" width="682.667" height="682.667" viewBox="0 0 512.000000 512.000000"><path d="M23 256v231l142.8-.2 142.7-.3 11.5-2.3c6.3-1.3 11.9-2.7 12.5-3.1.5-.5 4.6-1.9 9-3.2 4.4-1.2 8.2-2.6 8.5-2.9.3-.4 3.2-1.7 6.5-3.1 3.3-1.3 8.1-3.6 10.6-5.1 2.5-1.6 5.1-2.8 5.8-2.8.6 0 1.1-.4 1.1-.9s.9-1.2 2-1.6c1-.3 4.9-2.6 8.4-5.1 3.6-2.4 6.9-4.4 7.5-4.4.5 0 1.1-.3 1.3-.7.2-.5 1.9-2 3.8-3.4 13.3-10 36.4-33.9 43.5-45.1 2.1-3.3 9.4-14.3 10.2-15.3 1.2-1.6 4.7-8.1 9.1-17 7.3-14.7 10-21 11.7-27 1-3.3 2.1-6.5 2.5-7 1.4-1.7 6.1-19.4 8-30 5.5-29.9 5.5-72.1 0-101.7-2-11.1-6.3-27.5-8.4-32.3-.8-1.7-1.9-4.8-2.6-7-2.3-7.3-17.7-37.7-21-41.6-.8-1-2.4-3.5-3.5-5.6-1.1-2.1-3-4.9-4.2-6.3-1.3-1.4-2.3-2.8-2.3-3.2 0-.4-.8-1.7-1.7-2.9-12-14.8-23.3-26.6-35.4-36.8-9-7.6-10.8-9.1-11.4-9.1-.3 0-4.4-2.6-9.3-5.9-14.1-9.5-38.6-21.1-44.5-21.1-.7 0-2.5-.7-4.1-1.5-1.6-.8-7.9-2.5-14-3.7l-11.1-2.3-142.7-.3L23 24.9V256zM306 65.7c18.4 4.1 32.5 9.5 47.1 17.9C431 128.5 467 229.7 437.4 320.1c-5.2 15.9-15.6 37.5-24.1 50.4-24.9 37.7-61.5 63.7-104.3 74.1l-11.5 2.8-117.2.3-117.3.4V62.9l116.8.4c114.5.3 116.9.4 126.2 2.4z"/><path d="M79 255.5V431h104.8c115.9 0 114.3.1 133.8-6.5 32.9-11 62.2-33.7 81.7-63.5 11.9-18.2 22.4-43.8 27.3-66.8 3.2-14.7 4.4-45.2 2.4-62-3.3-28.9-15.4-60.9-32.1-85.2-24.1-35.1-61-59.2-99.9-65.5-8.1-1.3-25.4-1.5-113.7-1.5H79v175.5zm219.2-157c24.4 4.2 47.1 16.7 67.3 37 22.7 22.6 37.8 51.6 44.7 85.7 2 9.9 2.3 14.2 2.3 34.8-.1 21.7-.3 24.5-2.8 36.1-9.4 44.3-34.3 81.7-69.3 104.1-10.7 6.8-25.1 12.7-39.9 16.1-8.7 2-11.8 2.1-106.7 2.4l-97.8.4V97h96.9c81.1 0 98.2.2 105.3 1.5z"/><path d="M113 255.5v142.6l89.3-.4c78.1-.3 90-.6 95.7-2 22.3-5.5 40.9-16.4 57.1-33.4 19.6-20.6 32.4-46.2 38.6-77.8 2.5-13 2.5-44.3-.1-58-6.9-37.1-26.7-70.9-53.5-91-10.3-7.8-25.7-15.7-36.1-18.4-13.8-3.7-23.3-4.1-108.2-4.1H113v142.5zM290 131c22.1 3.5 43.1 16.2 58.6 35.5 14.4 17.8 23.2 37.3 28.1 62 2.5 12.9 2.5 40.5-.1 54-7.7 41.2-30.6 74.2-62.1 89.5-18.3 8.9-11.4 8.4-103.7 8.7l-81.8.4V130h77.3c47.8 0 79.7.4 83.7 1z"/><path d="M146 255.5V364h70.3c77.8 0 76.7 0 90.4-6.6 23.7-11.4 43.9-38.9 51.3-69.6 14.6-61.4-15.6-126.3-64.8-138.9-7.1-1.8-11.6-1.9-77.4-1.9H146v108.5zm146.9-89.7c22.1 7.9 40.8 31.2 48.1 59.7 4.1 16 4.5 40 1 56.1-6.7 30.5-26.3 56-49 63.7-6.4 2.1-7.8 2.2-68.2 2.5l-61.8.3V162.9l61.8.3c61.5.3 61.7.3 68.1 2.6z"/><path d="M180 255.5v75.6l52.8-.3 52.7-.3 5.7-2.7c11.4-5.3 19.8-14.5 26.9-29.3 6.9-14.4 8.3-21.3 8.3-43 0-16.4-.3-20.1-2.2-27-2.8-10.1-9.8-24.3-15.7-31.7-4.8-6-14.2-12.9-20.3-15-2.7-.9-17.9-1.3-55.9-1.6l-52.3-.3v75.6z"/></svg>